# xmcd
# 
# Track frame offsets:
#     150
#     26203
#     45703
#     51248
#     71178
#     91355
#     103988
#     123373
#     129208
#     135540
#     144498
#     149068
#     161960
#     176803
#     185418
#     203850
# 
# Disc length: 2927
# 
# Revision: 2
# Processed by: cddbd v1.5.2PL0 Copyright (c) Steve Scherf et al.
# Submitted via: fre:ac v1.0.27
# 
DISCID=000b6d10
DTITLE=Barbra Streisand - The Concert
DYEAR=0
DGENRE=
TTITLE0=Overture
TTITLE1=As If We Never Said Goodbye
TTITLE2=Opening Remarks
TTITLE3=I'm Still Here/Everybody Says Don't/Don't Rain on my parade
TTITLE4=Can't help lovin that man
TTITLE5=I'll know
TTITLE6=People
TTITLE7=Lover man
TTITLE8=Therapist Dialogue 1
TTITLE9=Will he like me
TTITLE10=Therapist Dialogue 2
TTITLE11=He touched me
TTITLE12=Evergreen
TTITLE13=Therapist Dialogue 3
TTITLE14=The man that got away
TTITLE15=On a clear day
EXTD=
EXTT0=
EXTT1=
EXTT2=
EXTT3=
EXTT4=
EXTT5=
EXTT6=
EXTT7=
EXTT8=
EXTT9=
EXTT10=
EXTT11=
EXTT12=
EXTT13=
EXTT14=
EXTT15=
PLAYORDER=
